<?xml version="1.0" encoding="us-ascii" standalone="no"?><svg xmlns="http://www.w3.org/2000/svg" xmlns:xlink="http://www.w3.org/1999/xlink" contentStyleType="text/css" height="4768.75px" preserveAspectRatio="none" style="width:2696px;height:4768px;background:#FFFFFF;" version="1.1" viewBox="0 0 2696 4768" width="2696.875px" zoomAndPan="magnify"><defs/><g><rect fill="none" height="781.8604" style="stroke:#000000;stroke-width:4.6875;" width="2031.25" x="614.0625" y="1224.2432"/><rect fill="none" height="502.4902" style="stroke:#000000;stroke-width:4.6875;" width="1239.0625" x="645.3125" y="1390.6982"/><rect fill="none" height="768.9453" style="stroke:#000000;stroke-width:4.6875;" width="2000" x="645.3125" y="2049.8535"/><rect fill="none" height="895.6055" style="stroke:#000000;stroke-width:4.6875;" width="1178.125" x="645.3125" y="3215.8936"/><line style="stroke:#181818;stroke-width:1.5625;stroke-dasharray:5.0,5.0;" x1="96.875" x2="96.875" y1="113.4277" y2="3066.5039"/><line style="stroke:#A80036;stroke-width:3.125;stroke-dasharray:1.0,4.0;" x1="96.875" x2="96.875" y1="3066.5039" y2="3194.0186"/><line style="stroke:#181818;stroke-width:1.5625;stroke-dasharray:5.0,5.0;" x1="96.875" x2="96.875" y1="3194.0186" y2="4133.374"/><line style="stroke:#A80036;stroke-width:3.125;stroke-dasharray:1.0,4.0;" x1="96.875" x2="96.875" y1="4133.374" y2="4260.8887"/><line style="stroke:#181818;stroke-width:1.5625;stroke-dasharray:5.0,5.0;" x1="96.875" x2="96.875" y1="4260.8887" y2="4659.8389"/><line style="stroke:#181818;stroke-width:1.5625;stroke-dasharray:5.0,5.0;" x1="801.5625" x2="801.5625" y1="113.4277" y2="3066.5039"/><line style="stroke:#A80036;stroke-width:3.125;stroke-dasharray:1.0,4.0;" x1="801.5625" x2="801.5625" y1="3066.5039" y2="3194.0186"/><line style="stroke:#181818;stroke-width:1.5625;stroke-dasharray:5.0,5.0;" x1="801.5625" x2="801.5625" y1="3194.0186" y2="4133.374"/><line style="stroke:#A80036;stroke-width:3.125;stroke-dasharray:1.0,4.0;" x1="801.5625" x2="801.5625" y1="4133.374" y2="4260.8887"/><line style="stroke:#181818;stroke-width:1.5625;stroke-dasharray:5.0,5.0;" x1="801.5625" x2="801.5625" y1="4260.8887" y2="4659.8389"/><line style="stroke:#181818;stroke-width:1.5625;stroke-dasharray:5.0,5.0;" x1="1389.0625" x2="1389.0625" y1="113.4277" y2="3066.5039"/><line style="stroke:#A80036;stroke-width:3.125;stroke-dasharray:1.0,4.0;" x1="1389.0625" x2="1389.0625" y1="3066.5039" y2="3194.0186"/><line style="stroke:#181818;stroke-width:1.5625;stroke-dasharray:5.0,5.0;" x1="1389.0625" x2="1389.0625" y1="3194.0186" y2="4133.374"/><line style="stroke:#A80036;stroke-width:3.125;stroke-dasharray:1.0,4.0;" x1="1389.0625" x2="1389.0625" y1="4133.374" y2="4260.8887"/><line style="stroke:#181818;stroke-width:1.5625;stroke-dasharray:5.0,5.0;" x1="1389.0625" x2="1389.0625" y1="4260.8887" y2="4659.8389"/><line style="stroke:#181818;stroke-width:1.5625;stroke-dasharray:5.0,5.0;" x1="2057.8125" x2="2057.8125" y1="113.4277" y2="3066.5039"/><line style="stroke:#A80036;stroke-width:3.125;stroke-dasharray:1.0,4.0;" x1="2057.8125" x2="2057.8125" y1="3066.5039" y2="3194.0186"/><line style="stroke:#181818;stroke-width:1.5625;stroke-dasharray:5.0,5.0;" x1="2057.8125" x2="2057.8125" y1="3194.0186" y2="4133.374"/><line style="stroke:#A80036;stroke-width:3.125;stroke-dasharray:1.0,4.0;" x1="2057.8125" x2="2057.8125" y1="4133.374" y2="4260.8887"/><line style="stroke:#181818;stroke-width:1.5625;stroke-dasharray:5.0,5.0;" x1="2057.8125" x2="2057.8125" y1="4260.8887" y2="4659.8389"/><line style="stroke:#181818;stroke-width:1.5625;stroke-dasharray:5.0,5.0;" x1="2439.0625" x2="2439.0625" y1="113.4277" y2="3066.5039"/><line style="stroke:#A80036;stroke-width:3.125;stroke-dasharray:1.0,4.0;" x1="2439.0625" x2="2439.0625" y1="3066.5039" y2="3194.0186"/><line style="stroke:#181818;stroke-width:1.5625;stroke-dasharray:5.0,5.0;" x1="2439.0625" x2="2439.0625" y1="3194.0186" y2="4133.374"/><line style="stroke:#A80036;stroke-width:3.125;stroke-dasharray:1.0,4.0;" x1="2439.0625" x2="2439.0625" y1="4133.374" y2="4260.8887"/><line style="stroke:#181818;stroke-width:1.5625;stroke-dasharray:5.0,5.0;" x1="2439.0625" x2="2439.0625" y1="4260.8887" y2="4659.8389"/><rect fill="#E2E2F0" height="94.6777" rx="7.8125" ry="7.8125" style="stroke:#181818;stroke-width:1.5625;" width="162.5" x="15.625" y="15.625"/><text fill="#000000" font-family="sans-serif" font-size="43.75" lengthAdjust="spacing" textLength="118.75" x="37.5" y="78.1097">Telco</text><rect fill="#E2E2F0" height="94.6777" rx="7.8125" ry="7.8125" style="stroke:#181818;stroke-width:1.5625;" width="162.5" x="15.625" y="4656.7139"/><text fill="#000000" font-family="sans-serif" font-size="43.75" lengthAdjust="spacing" textLength="118.75" x="37.5" y="4719.1986">Telco</text><rect fill="#E2E2F0" height="94.6777" rx="7.8125" ry="7.8125" style="stroke:#181818;stroke-width:1.5625;" width="253.125" x="676.5625" y="15.625"/><text fill="#000000" font-family="sans-serif" font-size="43.75" lengthAdjust="spacing" textLength="209.375" x="698.4375" y="78.1097">Substrate</text><rect fill="#E2E2F0" height="94.6777" rx="7.8125" ry="7.8125" style="stroke:#181818;stroke-width:1.5625;" width="253.125" x="676.5625" y="4656.7139"/><text fill="#000000" font-family="sans-serif" font-size="43.75" lengthAdjust="spacing" textLength="209.375" x="698.4375" y="4719.1986">Substrate</text><rect fill="#E2E2F0" height="94.6777" rx="7.8125" ry="7.8125" style="stroke:#181818;stroke-width:1.5625;" width="171.875" x="1304.6875" y="15.625"/><text fill="#000000" font-family="sans-serif" font-size="43.75" lengthAdjust="spacing" textLength="128.125" x="1326.5625" y="78.1097">Agent</text><rect fill="#E2E2F0" height="94.6777" rx="7.8125" ry="7.8125" style="stroke:#181818;stroke-width:1.5625;" width="171.875" x="1304.6875" y="4656.7139"/><text fill="#000000" font-family="sans-serif" font-size="43.75" lengthAdjust="spacing" textLength="128.125" x="1326.5625" y="4719.1986">Agent</text><rect fill="#E2E2F0" height="94.6777" rx="7.8125" ry="7.8125" style="stroke:#181818;stroke-width:1.5625;" width="346.875" x="1885.9375" y="15.625"/><text fill="#000000" font-family="sans-serif" font-size="43.75" lengthAdjust="spacing" textLength="303.125" x="1907.8125" y="78.1097">Meas. module</text><rect fill="#E2E2F0" height="94.6777" rx="7.8125" ry="7.8125" style="stroke:#181818;stroke-width:1.5625;" width="346.875" x="1885.9375" y="4656.7139"/><text fill="#000000" font-family="sans-serif" font-size="43.75" lengthAdjust="spacing" textLength="303.125" x="1907.8125" y="4719.1986">Meas. module</text><rect fill="#E2E2F0" height="94.6777" rx="7.8125" ry="7.8125" style="stroke:#181818;stroke-width:1.5625;" width="350" x="2264.0625" y="15.625"/><text fill="#000000" font-family="sans-serif" font-size="43.75" lengthAdjust="spacing" textLength="306.25" x="2285.9375" y="78.1097">Meas. storage</text><rect fill="#E2E2F0" height="94.6777" rx="7.8125" ry="7.8125" style="stroke:#181818;stroke-width:1.5625;" width="350" x="2264.0625" y="4656.7139"/><text fill="#000000" font-family="sans-serif" font-size="43.75" lengthAdjust="spacing" textLength="306.25" x="2285.9375" y="4719.1986">Meas. storage</text><path d="M1265.625,160.3027 L1265.625,238.4277 L2559.375,238.4277 L2559.375,191.5527 L2528.125,160.3027 L1265.625,160.3027 " fill="#FEFFDD" style="stroke:#181818;stroke-width:1.5625;"/><path d="M2528.125,160.3027 L2528.125,191.5527 L2559.375,191.5527 L2528.125,160.3027 " fill="#FEFFDD" style="stroke:#181818;stroke-width:1.5625;"/><text fill="#000000" font-family="sans-serif" font-size="40.625" lengthAdjust="spacing" textLength="943.75" x="1426.5625" y="213.6368">These modules are located on cell tower board.</text><rect fill="#EEEEEE" height="9.375" style="stroke:#EEEEEE;stroke-width:3.125;" width="2676.5625" x="0" y="318.7378"/><line style="stroke:#000000;stroke-width:3.125;" x1="0" x2="2676.5625" y1="318.7378" y2="318.7378"/><line style="stroke:#000000;stroke-width:3.125;" x1="0" x2="2676.5625" y1="328.1128" y2="328.1128"/><rect fill="#EEEEEE" height="72.29" style="stroke:#000000;stroke-width:6.25;" width="475" x="1100.7813" y="285.7178"/><text fill="#000000" font-family="sans-serif" font-size="40.625" font-weight="bold" lengthAdjust="spacing" textLength="415.625" x="1119.5313" y="335.9268">Preparation steps</text><line style="stroke:#181818;stroke-width:3.125;" x1="96.875" x2="228.125" y1="502.5879" y2="502.5879"/><line style="stroke:#181818;stroke-width:3.125;" x1="228.125" x2="228.125" y1="502.5879" y2="543.2129"/><line style="stroke:#181818;stroke-width:3.125;" x1="100" x2="228.125" y1="543.2129" y2="543.2129"/><polygon fill="#181818" points="131.25,530.7129,100,543.2129,131.25,555.7129,118.75,543.2129" style="stroke:#181818;stroke-width:3.125;"/><text fill="#000000" font-family="sans-serif" font-size="40.625" font-weight="bold" lengthAdjust="spacing" textLength="28.125" x="118.75" y="463.1119">1</text><text fill="#000000" font-family="sans-serif" font-size="40.625" lengthAdjust="spacing" textLength="603.125" x="159.375" y="439.4669">Admin generates new key pair</text><text fill="#000000" font-family="sans-serif" font-size="40.625" lengthAdjust="spacing" textLength="328.125" x="171.875" y="486.7569">for cell company</text><line style="stroke:#181818;stroke-width:3.125;" x1="96.875" x2="228.125" y1="681.543" y2="681.543"/><line style="stroke:#181818;stroke-width:3.125;" x1="228.125" x2="228.125" y1="681.543" y2="722.168"/><line style="stroke:#181818;stroke-width:3.125;" x1="100" x2="228.125" y1="722.168" y2="722.168"/><polygon fill="#181818" points="131.25,709.668,100,722.168,131.25,734.668,118.75,722.168" style="stroke:#181818;stroke-width:3.125;"/><text fill="#000000" font-family="sans-serif" font-size="40.625" font-weight="bold" lengthAdjust="spacing" textLength="28.125" x="118.75" y="642.067">2</text><text fill="#000000" font-family="sans-serif" font-size="40.625" lengthAdjust="spacing" textLength="603.125" x="159.375" y="618.4219">Admin generates new key pair</text><text fill="#000000" font-family="sans-serif" font-size="40.625" lengthAdjust="spacing" textLength="253.125" x="171.875" y="665.712">for cell tower</text><polygon fill="#181818" points="765.625,800.708,796.875,813.208,765.625,825.708,778.125,813.208" style="stroke:#181818;stroke-width:3.125;"/><line style="stroke:#181818;stroke-width:3.125;" x1="96.875" x2="784.375" y1="813.208" y2="813.208"/><text fill="#000000" font-family="sans-serif" font-size="40.625" font-weight="bold" lengthAdjust="spacing" textLength="28.125" x="118.75" y="797.377">3</text><text fill="#000000" font-family="sans-serif" font-size="40.625" lengthAdjust="spacing" textLength="350" x="159.375" y="797.377">Create new entity</text><polygon fill="#181818" points="765.625,891.748,796.875,904.248,765.625,916.748,778.125,904.248" style="stroke:#181818;stroke-width:3.125;"/><line style="stroke:#181818;stroke-width:3.125;" x1="96.875" x2="784.375" y1="904.248" y2="904.248"/><text fill="#000000" font-family="sans-serif" font-size="40.625" font-weight="bold" lengthAdjust="spacing" textLength="28.125" x="118.75" y="888.4171">4</text><text fill="#000000" font-family="sans-serif" font-size="40.625" lengthAdjust="spacing" textLength="437.5" x="159.375" y="888.4171">Create new sub-entity</text><polygon fill="#181818" points="1353.125,1030.0781,1384.375,1042.5781,1353.125,1055.0781,1365.625,1042.5781" style="stroke:#181818;stroke-width:3.125;"/><line style="stroke:#181818;stroke-width:3.125;" x1="96.875" x2="1371.875" y1="1042.5781" y2="1042.5781"/><text fill="#000000" font-family="sans-serif" font-size="40.625" font-weight="bold" lengthAdjust="spacing" textLength="28.125" x="118.75" y="1003.1021">5</text><text fill="#000000" font-family="sans-serif" font-size="40.625" lengthAdjust="spacing" textLength="387.5" x="159.375" y="979.4571">Install software with</text><text fill="#000000" font-family="sans-serif" font-size="40.625" lengthAdjust="spacing" textLength="418.75" x="171.875" y="1026.7471">cell tower private key</text><rect fill="#EEEEEE" height="9.375" style="stroke:#EEEEEE;stroke-width:3.125;" width="2676.5625" x="0" y="1131.8481"/><line style="stroke:#000000;stroke-width:3.125;" x1="0" x2="2676.5625" y1="1131.8481" y2="1131.8481"/><line style="stroke:#000000;stroke-width:3.125;" x1="0" x2="2676.5625" y1="1141.2231" y2="1141.2231"/><rect fill="#EEEEEE" height="72.29" style="stroke:#000000;stroke-width:6.25;" width="543.75" x="1066.4063" y="1098.8281"/><text fill="#000000" font-family="sans-serif" font-size="40.625" font-weight="bold" lengthAdjust="spacing" textLength="484.375" x="1085.1563" y="1149.0372">Measurements steps</text><path d="M614.0625,1224.2432 L854.6875,1224.2432 L854.6875,1246.5332 L823.4375,1277.7832 L614.0625,1277.7832 L614.0625,1224.2432 " fill="#EEEEEE" style="stroke:#000000;stroke-width:4.6875;"/><rect fill="none" height="781.8604" style="stroke:#000000;stroke-width:4.6875;" width="2031.25" x="614.0625" y="1224.2432"/><text fill="#000000" font-family="sans-serif" font-size="40.625" font-weight="bold" lengthAdjust="spacing" textLength="100" x="660.9375" y="1265.0772">loop</text><text fill="#000000" font-family="sans-serif" font-size="34.375" font-weight="bold" lengthAdjust="spacing" textLength="353.125" x="901.5625" y="1262.4008">[In some interval]</text><polygon fill="#181818" points="1425,1331.3232,1393.75,1343.8232,1425,1356.3232,1412.5,1343.8232" style="stroke:#181818;stroke-width:3.125;"/><line style="stroke:#181818;stroke-width:3.125;" x1="1406.25" x2="2056.25" y1="1343.8232" y2="1343.8232"/><text fill="#000000" font-family="sans-serif" font-size="40.625" font-weight="bold" lengthAdjust="spacing" textLength="28.125" x="1443.75" y="1327.9922">6</text><text fill="#000000" font-family="sans-serif" font-size="40.625" lengthAdjust="spacing" textLength="400" x="1484.375" y="1327.9922">Send measurement</text><path d="M645.3125,1390.6982 L845.3125,1390.6982 L845.3125,1412.9883 L814.0625,1444.2383 L645.3125,1444.2383 L645.3125,1390.6982 " fill="#EEEEEE" style="stroke:#000000;stroke-width:4.6875;"/><rect fill="none" height="502.4902" style="stroke:#000000;stroke-width:4.6875;" width="1239.0625" x="645.3125" y="1390.6982"/><text fill="#000000" font-family="sans-serif" font-size="40.625" font-weight="bold" lengthAdjust="spacing" textLength="59.375" x="692.1875" y="1431.5323">alt</text><text fill="#000000" font-family="sans-serif" font-size="34.375" font-weight="bold" lengthAdjust="spacing" textLength="587.5" x="892.1875" y="1428.8559">[If measurement &gt; threshold]</text><line style="stroke:#181818;stroke-width:3.125;" x1="1390.625" x2="1521.875" y1="1510.2783" y2="1510.2783"/><line style="stroke:#181818;stroke-width:3.125;" x1="1521.875" x2="1521.875" y1="1510.2783" y2="1550.9033"/><line style="stroke:#181818;stroke-width:3.125;" x1="1393.75" x2="1521.875" y1="1550.9033" y2="1550.9033"/><polygon fill="#181818" points="1425,1538.4033,1393.75,1550.9033,1425,1563.4033,1412.5,1550.9033" style="stroke:#181818;stroke-width:3.125;"/><text fill="#000000" font-family="sans-serif" font-size="40.625" font-weight="bold" lengthAdjust="spacing" textLength="28.125" x="1412.5" y="1494.4473">7</text><text fill="#000000" font-family="sans-serif" font-size="40.625" lengthAdjust="spacing" textLength="393.75" x="1453.125" y="1494.4473">Prepare transaction</text><line style="stroke:#181818;stroke-width:3.125;" x1="1390.625" x2="1521.875" y1="1641.9434" y2="1641.9434"/><line style="stroke:#181818;stroke-width:3.125;" x1="1521.875" x2="1521.875" y1="1641.9434" y2="1682.5684"/><line style="stroke:#181818;stroke-width:3.125;" x1="1393.75" x2="1521.875" y1="1682.5684" y2="1682.5684"/><polygon fill="#181818" points="1425,1670.0684,1393.75,1682.5684,1425,1695.0684,1412.5,1682.5684" style="stroke:#181818;stroke-width:3.125;"/><text fill="#000000" font-family="sans-serif" font-size="40.625" font-weight="bold" lengthAdjust="spacing" textLength="28.125" x="1412.5" y="1626.1124">8</text><text fill="#000000" font-family="sans-serif" font-size="40.625" lengthAdjust="spacing" textLength="325" x="1453.125" y="1626.1124">Sign transaction</text><polygon fill="#181818" points="837.5,1855.6885,806.25,1868.1885,837.5,1880.6885,825,1868.1885" style="stroke:#181818;stroke-width:3.125;"/><line style="stroke:#181818;stroke-width:3.125;" x1="818.75" x2="1387.5" y1="1868.1885" y2="1868.1885"/><text fill="#000000" font-family="sans-serif" font-size="40.625" font-weight="bold" lengthAdjust="spacing" textLength="28.125" x="856.25" y="1805.0674">9</text><text fill="#000000" font-family="sans-serif" font-size="40.625" lengthAdjust="spacing" textLength="246.875" x="896.875" y="1757.7774">Send signed</text><text fill="#000000" font-family="sans-serif" font-size="40.625" lengthAdjust="spacing" textLength="356.25" x="909.375" y="1805.0674">transaction (store</text><text fill="#000000" font-family="sans-serif" font-size="40.625" lengthAdjust="spacing" textLength="415.625" x="909.375" y="1852.3575">measurement spike)</text><polygon fill="#181818" points="2401.5625,1968.6035,2432.8125,1981.1035,2401.5625,1993.6035,2414.0625,1981.1035" style="stroke:#181818;stroke-width:3.125;"/><line style="stroke:#181818;stroke-width:3.125;" x1="1390.625" x2="2420.3125" y1="1981.1035" y2="1981.1035"/><text fill="#000000" font-family="sans-serif" font-size="40.625" font-weight="bold" lengthAdjust="spacing" textLength="56.25" x="1412.5" y="1965.2725">10</text><text fill="#000000" font-family="sans-serif" font-size="40.625" lengthAdjust="spacing" textLength="406.25" x="1481.25" y="1965.2725">Store measurement</text><path d="M645.3125,2049.8535 L885.9375,2049.8535 L885.9375,2072.1436 L854.6875,2103.3936 L645.3125,2103.3936 L645.3125,2049.8535 " fill="#EEEEEE" style="stroke:#000000;stroke-width:4.6875;"/><rect fill="none" height="768.9453" style="stroke:#000000;stroke-width:4.6875;" width="2000" x="645.3125" y="2049.8535"/><text fill="#000000" font-family="sans-serif" font-size="40.625" font-weight="bold" lengthAdjust="spacing" textLength="100" x="692.1875" y="2090.6876">loop</text><text fill="#000000" font-family="sans-serif" font-size="34.375" font-weight="bold" lengthAdjust="spacing" textLength="225" x="932.8125" y="2088.0112">[Every day]</text><polygon fill="#181818" points="2401.5625,2156.9336,2432.8125,2169.4336,2401.5625,2181.9336,2414.0625,2169.4336" style="stroke:#181818;stroke-width:3.125;"/><line style="stroke:#181818;stroke-width:3.125;" x1="1390.625" x2="2420.3125" y1="2169.4336" y2="2169.4336"/><text fill="#000000" font-family="sans-serif" font-size="40.625" font-weight="bold" lengthAdjust="spacing" textLength="56.25" x="1412.5" y="2153.6026">11</text><text fill="#000000" font-family="sans-serif" font-size="40.625" lengthAdjust="spacing" textLength="703.125" x="1481.25" y="2153.6026">Get measurements for the last day</text><polygon fill="#181818" points="1425,2247.9736,1393.75,2260.4736,1425,2272.9736,1412.5,2260.4736" style="stroke:#181818;stroke-width:3.125;"/><line style="stroke:#181818;stroke-width:3.125;stroke-dasharray:2.0,2.0;" x1="1406.25" x2="2435.9375" y1="2260.4736" y2="2260.4736"/><text fill="#000000" font-family="sans-serif" font-size="40.625" font-weight="bold" lengthAdjust="spacing" textLength="56.25" x="1443.75" y="2244.6426">12</text><text fill="#000000" font-family="sans-serif" font-size="40.625" lengthAdjust="spacing" textLength="450" x="1512.5" y="2244.6426">Return measurements</text><line style="stroke:#181818;stroke-width:3.125;" x1="1390.625" x2="1521.875" y1="2351.5137" y2="2351.5137"/><line style="stroke:#181818;stroke-width:3.125;" x1="1521.875" x2="1521.875" y1="2351.5137" y2="2392.1387"/><line style="stroke:#181818;stroke-width:3.125;" x1="1393.75" x2="1521.875" y1="2392.1387" y2="2392.1387"/><polygon fill="#181818" points="1425,2379.6387,1393.75,2392.1387,1425,2404.6387,1412.5,2392.1387" style="stroke:#181818;stroke-width:3.125;"/><text fill="#000000" font-family="sans-serif" font-size="40.625" font-weight="bold" lengthAdjust="spacing" textLength="56.25" x="1412.5" y="2335.6827">13</text><text fill="#000000" font-family="sans-serif" font-size="40.625" lengthAdjust="spacing" textLength="556.25" x="1481.25" y="2335.6827">Accumulate measurements</text><line style="stroke:#181818;stroke-width:3.125;" x1="1390.625" x2="1521.875" y1="2483.1787" y2="2483.1787"/><line style="stroke:#181818;stroke-width:3.125;" x1="1521.875" x2="1521.875" y1="2483.1787" y2="2523.8037"/><line style="stroke:#181818;stroke-width:3.125;" x1="1393.75" x2="1521.875" y1="2523.8037" y2="2523.8037"/><polygon fill="#181818" points="1425,2511.3037,1393.75,2523.8037,1425,2536.3037,1412.5,2523.8037" style="stroke:#181818;stroke-width:3.125;"/><text fill="#000000" font-family="sans-serif" font-size="40.625" font-weight="bold" lengthAdjust="spacing" textLength="56.25" x="1412.5" y="2467.3477">14</text><text fill="#000000" font-family="sans-serif" font-size="40.625" lengthAdjust="spacing" textLength="393.75" x="1481.25" y="2467.3477">Prepare transaction</text><line style="stroke:#181818;stroke-width:3.125;" x1="1390.625" x2="1521.875" y1="2614.8438" y2="2614.8438"/><line style="stroke:#181818;stroke-width:3.125;" x1="1521.875" x2="1521.875" y1="2614.8438" y2="2655.4688"/><line style="stroke:#181818;stroke-width:3.125;" x1="1393.75" x2="1521.875" y1="2655.4688" y2="2655.4688"/><polygon fill="#181818" points="1425,2642.9688,1393.75,2655.4688,1425,2667.9688,1412.5,2655.4688" style="stroke:#181818;stroke-width:3.125;"/><text fill="#000000" font-family="sans-serif" font-size="40.625" font-weight="bold" lengthAdjust="spacing" textLength="56.25" x="1412.5" y="2599.0128">15</text><text fill="#000000" font-family="sans-serif" font-size="40.625" lengthAdjust="spacing" textLength="325" x="1481.25" y="2599.0128">Sign transaction</text><polygon fill="#181818" points="837.5,2781.2988,806.25,2793.7988,837.5,2806.2988,825,2793.7988" style="stroke:#181818;stroke-width:3.125;"/><line style="stroke:#181818;stroke-width:3.125;" x1="818.75" x2="1387.5" y1="2793.7988" y2="2793.7988"/><text fill="#000000" font-family="sans-serif" font-size="40.625" font-weight="bold" lengthAdjust="spacing" textLength="56.25" x="856.25" y="2754.3228">16</text><text fill="#000000" font-family="sans-serif" font-size="40.625" lengthAdjust="spacing" textLength="340.625" x="925" y="2730.6778">Send transaction</text><text fill="#000000" font-family="sans-serif" font-size="40.625" lengthAdjust="spacing" textLength="431.25" x="937.5" y="2777.9678">(store measurement)</text><rect fill="#EEEEEE" height="9.375" style="stroke:#EEEEEE;stroke-width:3.125;" width="2676.5625" x="0" y="2904.9438"/><line style="stroke:#000000;stroke-width:3.125;" x1="0" x2="2676.5625" y1="2904.9438" y2="2904.9438"/><line style="stroke:#000000;stroke-width:3.125;" x1="0" x2="2676.5625" y1="2914.3188" y2="2914.3188"/><rect fill="#EEEEEE" height="72.29" style="stroke:#000000;stroke-width:6.25;" width="484.375" x="1096.0938" y="2871.9238"/><text fill="#000000" font-family="sans-serif" font-size="40.625" font-weight="bold" lengthAdjust="spacing" textLength="425" x="1114.8438" y="2922.1329">Certification steps</text><polygon fill="#181818" points="837.5,3029.0039,806.25,3041.5039,837.5,3054.0039,825,3041.5039" style="stroke:#181818;stroke-width:3.125;"/><line style="stroke:#181818;stroke-width:3.125;" x1="818.75" x2="1387.5" y1="3041.5039" y2="3041.5039"/><text fill="#000000" font-family="sans-serif" font-size="40.625" font-weight="bold" lengthAdjust="spacing" textLength="56.25" x="856.25" y="3025.6729">17</text><text fill="#000000" font-family="sans-serif" font-size="40.625" lengthAdjust="spacing" textLength="428.125" x="925" y="3025.6729">Store measurements</text><text fill="#000000" font-family="sans-serif" font-size="34.375" lengthAdjust="spacing" textLength="234.375" x="1150.7813" y="3142.1616">In some time</text><path d="M645.3125,3215.8936 L845.3125,3215.8936 L845.3125,3238.1836 L814.0625,3269.4336 L645.3125,3269.4336 L645.3125,3215.8936 " fill="#EEEEEE" style="stroke:#000000;stroke-width:4.6875;"/><rect fill="none" height="895.6055" style="stroke:#000000;stroke-width:4.6875;" width="1178.125" x="645.3125" y="3215.8936"/><text fill="#000000" font-family="sans-serif" font-size="40.625" font-weight="bold" lengthAdjust="spacing" textLength="59.375" x="692.1875" y="3256.7276">alt</text><text fill="#000000" font-family="sans-serif" font-size="34.375" font-weight="bold" lengthAdjust="spacing" textLength="915.625" x="892.1875" y="3254.0512">[Received required amount of measurements]</text><path d="M703.125,3285.0586 L703.125,3550.6836 L1487.5,3550.6836 L1487.5,3316.3086 L1456.25,3285.0586 L703.125,3285.0586 " fill="#FEFFDD" style="stroke:#181818;stroke-width:1.5625;"/><path d="M1456.25,3285.0586 L1456.25,3316.3086 L1487.5,3316.3086 L1456.25,3285.0586 " fill="#FEFFDD" style="stroke:#181818;stroke-width:1.5625;"/><text fill="#000000" font-family="sans-serif" font-size="40.625" lengthAdjust="spacing" textLength="396.875" x="800" y="3338.3926">It means we receive</text><text fill="#000000" font-family="sans-serif" font-size="40.625" lengthAdjust="spacing" textLength="481.25" x="800" y="3385.6827">average measurements</text><text fill="#000000" font-family="sans-serif" font-size="40.625" lengthAdjust="spacing" textLength="412.5" x="800" y="3432.9727">for the whole month.</text><text fill="#000000" font-family="sans-serif" font-size="40.625" lengthAdjust="spacing" textLength="425" x="800" y="3480.2628">And it is enough data</text><text fill="#000000" font-family="sans-serif" font-size="40.625" lengthAdjust="spacing" textLength="562.5" x="800" y="3527.5528">to issue on-chain certificate.</text><line style="stroke:#181818;stroke-width:3.125;" x1="803.125" x2="934.375" y1="3681.7139" y2="3681.7139"/><line style="stroke:#181818;stroke-width:3.125;" x1="934.375" x2="934.375" y1="3681.7139" y2="3722.3389"/><line style="stroke:#181818;stroke-width:3.125;" x1="806.25" x2="934.375" y1="3722.3389" y2="3722.3389"/><polygon fill="#181818" points="837.5,3709.8389,806.25,3722.3389,837.5,3734.8389,825,3722.3389" style="stroke:#181818;stroke-width:3.125;"/><text fill="#000000" font-family="sans-serif" font-size="40.625" font-weight="bold" lengthAdjust="spacing" textLength="56.25" x="825" y="3642.2379">18</text><text fill="#000000" font-family="sans-serif" font-size="40.625" lengthAdjust="spacing" textLength="306.25" x="893.75" y="3618.5928">Issue and store</text><text fill="#000000" font-family="sans-serif" font-size="40.625" lengthAdjust="spacing" textLength="381.25" x="906.25" y="3665.8829">on-chain certificate</text><line style="stroke:#181818;stroke-width:3.125;" x1="803.125" x2="934.375" y1="3907.959" y2="3907.959"/><line style="stroke:#181818;stroke-width:3.125;" x1="934.375" x2="934.375" y1="3907.959" y2="3948.584"/><line style="stroke:#181818;stroke-width:3.125;" x1="806.25" x2="934.375" y1="3948.584" y2="3948.584"/><polygon fill="#181818" points="837.5,3936.084,806.25,3948.584,837.5,3961.084,825,3948.584" style="stroke:#181818;stroke-width:3.125;"/><text fill="#000000" font-family="sans-serif" font-size="40.625" font-weight="bold" lengthAdjust="spacing" textLength="56.25" x="825" y="3844.838">19</text><text fill="#000000" font-family="sans-serif" font-size="40.625" lengthAdjust="spacing" textLength="346.875" x="893.75" y="3797.5479">Produce on-chain</text><text fill="#000000" font-family="sans-serif" font-size="40.625" lengthAdjust="spacing" textLength="331.25" x="906.25" y="3844.838">event about new</text><text fill="#000000" font-family="sans-serif" font-size="40.625" lengthAdjust="spacing" textLength="196.875" x="906.25" y="3892.128">certificate</text><line style="stroke:#000000;stroke-width:3.125;stroke-dasharray:2.0,2.0;" x1="645.3125" x2="1823.4375" y1="3976.709" y2="3976.709"/><line style="stroke:#181818;stroke-width:3.125;" x1="803.125" x2="934.375" y1="4045.874" y2="4045.874"/><line style="stroke:#181818;stroke-width:3.125;" x1="934.375" x2="934.375" y1="4045.874" y2="4086.499"/><line style="stroke:#181818;stroke-width:3.125;" x1="843.75" x2="934.375" y1="4086.499" y2="4086.499"/><line style="stroke:#181818;stroke-width:6.25;" x1="821.875" x2="853.125" y1="4070.874" y2="4102.124"/><line style="stroke:#181818;stroke-width:6.25;" x1="821.875" x2="853.125" y1="4102.124" y2="4070.874"/><text fill="#000000" font-family="sans-serif" font-size="40.625" font-weight="bold" lengthAdjust="spacing" textLength="56.25" x="825" y="4030.043">20</text><text fill="#000000" font-family="sans-serif" font-size="40.625" lengthAdjust="spacing" textLength="337.5" x="893.75" y="4030.043">Stop current flow</text><text fill="#000000" font-family="sans-serif" font-size="34.375" lengthAdjust="spacing" textLength="234.375" x="1150.7813" y="4209.0317">In some time</text><polygon fill="#181818" points="131.25,4361.7188,100,4374.2188,131.25,4386.7188,118.75,4374.2188" style="stroke:#181818;stroke-width:3.125;"/><line style="stroke:#181818;stroke-width:3.125;" x1="112.5" x2="800" y1="4374.2188" y2="4374.2188"/><text fill="#000000" font-family="sans-serif" font-size="40.625" font-weight="bold" lengthAdjust="spacing" textLength="56.25" x="150" y="4334.7427">21</text><text fill="#000000" font-family="sans-serif" font-size="40.625" lengthAdjust="spacing" textLength="562.5" x="218.75" y="4311.0977">See new on-chain certificate</text><text fill="#000000" font-family="sans-serif" font-size="40.625" lengthAdjust="spacing" textLength="296.875" x="231.25" y="4358.3878">on-chain event</text><polygon fill="#181818" points="765.625,4452.7588,796.875,4465.2588,765.625,4477.7588,778.125,4465.2588" style="stroke:#181818;stroke-width:3.125;"/><line style="stroke:#181818;stroke-width:3.125;" x1="96.875" x2="784.375" y1="4465.2588" y2="4465.2588"/><text fill="#000000" font-family="sans-serif" font-size="40.625" font-weight="bold" lengthAdjust="spacing" textLength="56.25" x="118.75" y="4449.4278">22</text><text fill="#000000" font-family="sans-serif" font-size="40.625" lengthAdjust="spacing" textLength="465.625" x="187.5" y="4449.4278">Get on-chain certificate</text><polygon fill="#181818" points="131.25,4591.0889,100,4603.5889,131.25,4616.0889,118.75,4603.5889" style="stroke:#181818;stroke-width:3.125;"/><line style="stroke:#181818;stroke-width:3.125;stroke-dasharray:2.0,2.0;" x1="112.5" x2="800" y1="4603.5889" y2="4603.5889"/><text fill="#000000" font-family="sans-serif" font-size="40.625" font-weight="bold" lengthAdjust="spacing" textLength="56.25" x="150" y="4564.1129">23</text><text fill="#000000" font-family="sans-serif" font-size="40.625" lengthAdjust="spacing" textLength="315.625" x="218.75" y="4540.4678">Return on-chain</text><text fill="#000000" font-family="sans-serif" font-size="40.625" lengthAdjust="spacing" textLength="281.25" x="231.25" y="4587.7579">certificate info</text><!--SRC=[dLJ1Yjim4BthAuOzTM5Z5deBf12MKd8eB9iz1eeYZsEnjkHAexZv-uva9v5JBrlsOcJflJUZDwFnRzfqqiaMoax3ryT78GDP4zezEY7uXBJIdJG4hzWe2z83nSNaQ1lsdfmaZCV-_3E1h0_8NpwMSJ4vklk9qXVGsZ8qU1SnBM_y6lxda9wiOva47TT26ClXxH7T4E5XF5Z2QuqUHtKExn0QgpYz4gm1XKq3P7kcxQrqPI74QWNF3gCdf1dX2JiFgvKGwTwm-3OOi8HrsMe370pZRJqOxE4DJz19xNO6Aki6UMLRplxqQNvAxyg- -Bk49uVHz4ZaAsiwVOJYtSKjCjcrX8tn93cQjnNrqQLUKxsREDGvVOnAd6IoALOZE6oPxpEV6cixbcEb5a4RGdUKZO2ygbdSBPeo7OrA39GDmQRADu5DgntwsZOb0s0WPof3nH3uoiPB5IitYzlgWtaVb9cMqlACnd8tOS2Ns5d8ctb-ljDlUCzgJ1EvuhaBjv4qkMT43bvzvwuzGIbFiymVI3dFfyQWcjjOUXfP8nWMrvk-80KtITABV_rOAnNQqCIgVe2ST_W__7tNtGosEzkQPt4_MCIDzeGy0ogjRb_ahFIjZ1UYA8fBGvBc3symczli1HNg8yy2Xx-3ThoGhGqiQgkfndMyN68z3ADiayfZFFJ8AabEI0R6UamapdNhkOlZG39K5sBDHcW2xRbpR3ZKN52IWYpl-C0HpKBLKiTdUBO0Y-WBn8J49PSR4pQ9B6CBZyqw9_Gk_TdnArNNwCp7OvhVUnieJfBTL0WRZx4DCxq_DqNfG0NdeaZLs7uexNnT9bcDitABmm2RkqP-kvJcx1ICp-WZ4wxnnjUJ6P1HUAXLLlm5]--></g></svg>