<?xml version="1.0" encoding="us-ascii" standalone="no"?><svg xmlns="http://www.w3.org/2000/svg" xmlns:xlink="http://www.w3.org/1999/xlink" contentStyleType="text/css" height="4996.875px" preserveAspectRatio="none" style="width:2818px;height:4996px;background:#FFFFFF;" version="1.1" viewBox="0 0 2818 4996" width="2818.75px" zoomAndPan="magnify"><defs/><g><rect fill="none" height="781.8604" style="stroke:#000000;stroke-width:4.6875;" width="2125" x="642.1875" y="1224.2432"/><rect fill="none" height="502.4902" style="stroke:#000000;stroke-width:4.6875;" width="1332.8125" x="673.4375" y="1390.6982"/><rect fill="none" height="768.9453" style="stroke:#000000;stroke-width:4.6875;" width="2093.75" x="673.4375" y="2049.8535"/><rect fill="none" height="716.6504" style="stroke:#000000;stroke-width:4.6875;" width="1178.125" x="673.4375" y="3306.9336"/><line style="stroke:#181818;stroke-width:1.5625;stroke-dasharray:5.0,5.0;" x1="96.875" x2="96.875" y1="113.4277" y2="3157.5439"/><line style="stroke:#A80036;stroke-width:3.125;stroke-dasharray:1.0,4.0;" x1="96.875" x2="96.875" y1="3157.5439" y2="3285.0586"/><line style="stroke:#181818;stroke-width:1.5625;stroke-dasharray:5.0,5.0;" x1="96.875" x2="96.875" y1="3285.0586" y2="4045.459"/><line style="stroke:#A80036;stroke-width:3.125;stroke-dasharray:1.0,4.0;" x1="96.875" x2="96.875" y1="4045.459" y2="4172.9736"/><line style="stroke:#181818;stroke-width:1.5625;stroke-dasharray:5.0,5.0;" x1="96.875" x2="96.875" y1="4172.9736" y2="4889.209"/><line style="stroke:#181818;stroke-width:1.5625;stroke-dasharray:5.0,5.0;" x1="829.6875" x2="829.6875" y1="113.4277" y2="3157.5439"/><line style="stroke:#A80036;stroke-width:3.125;stroke-dasharray:1.0,4.0;" x1="829.6875" x2="829.6875" y1="3157.5439" y2="3285.0586"/><line style="stroke:#181818;stroke-width:1.5625;stroke-dasharray:5.0,5.0;" x1="829.6875" x2="829.6875" y1="3285.0586" y2="4045.459"/><line style="stroke:#A80036;stroke-width:3.125;stroke-dasharray:1.0,4.0;" x1="829.6875" x2="829.6875" y1="4045.459" y2="4172.9736"/><line style="stroke:#181818;stroke-width:1.5625;stroke-dasharray:5.0,5.0;" x1="829.6875" x2="829.6875" y1="4172.9736" y2="4889.209"/><line style="stroke:#181818;stroke-width:1.5625;stroke-dasharray:5.0,5.0;" x1="1510.9375" x2="1510.9375" y1="113.4277" y2="3157.5439"/><line style="stroke:#A80036;stroke-width:3.125;stroke-dasharray:1.0,4.0;" x1="1510.9375" x2="1510.9375" y1="3157.5439" y2="3285.0586"/><line style="stroke:#181818;stroke-width:1.5625;stroke-dasharray:5.0,5.0;" x1="1510.9375" x2="1510.9375" y1="3285.0586" y2="4045.459"/><line style="stroke:#A80036;stroke-width:3.125;stroke-dasharray:1.0,4.0;" x1="1510.9375" x2="1510.9375" y1="4045.459" y2="4172.9736"/><line style="stroke:#181818;stroke-width:1.5625;stroke-dasharray:5.0,5.0;" x1="1510.9375" x2="1510.9375" y1="4172.9736" y2="4889.209"/><line style="stroke:#181818;stroke-width:1.5625;stroke-dasharray:5.0,5.0;" x1="2179.6875" x2="2179.6875" y1="113.4277" y2="3157.5439"/><line style="stroke:#A80036;stroke-width:3.125;stroke-dasharray:1.0,4.0;" x1="2179.6875" x2="2179.6875" y1="3157.5439" y2="3285.0586"/><line style="stroke:#181818;stroke-width:1.5625;stroke-dasharray:5.0,5.0;" x1="2179.6875" x2="2179.6875" y1="3285.0586" y2="4045.459"/><line style="stroke:#A80036;stroke-width:3.125;stroke-dasharray:1.0,4.0;" x1="2179.6875" x2="2179.6875" y1="4045.459" y2="4172.9736"/><line style="stroke:#181818;stroke-width:1.5625;stroke-dasharray:5.0,5.0;" x1="2179.6875" x2="2179.6875" y1="4172.9736" y2="4889.209"/><line style="stroke:#181818;stroke-width:1.5625;stroke-dasharray:5.0,5.0;" x1="2560.9375" x2="2560.9375" y1="113.4277" y2="3157.5439"/><line style="stroke:#A80036;stroke-width:3.125;stroke-dasharray:1.0,4.0;" x1="2560.9375" x2="2560.9375" y1="3157.5439" y2="3285.0586"/><line style="stroke:#181818;stroke-width:1.5625;stroke-dasharray:5.0,5.0;" x1="2560.9375" x2="2560.9375" y1="3285.0586" y2="4045.459"/><line style="stroke:#A80036;stroke-width:3.125;stroke-dasharray:1.0,4.0;" x1="2560.9375" x2="2560.9375" y1="4045.459" y2="4172.9736"/><line style="stroke:#181818;stroke-width:1.5625;stroke-dasharray:5.0,5.0;" x1="2560.9375" x2="2560.9375" y1="4172.9736" y2="4889.209"/><rect fill="#E2E2F0" height="94.6777" rx="7.8125" ry="7.8125" style="stroke:#181818;stroke-width:1.5625;" width="162.5" x="15.625" y="15.625"/><text fill="#000000" font-family="sans-serif" font-size="43.75" lengthAdjust="spacing" textLength="118.75" x="37.5" y="78.1097">Telco</text><rect fill="#E2E2F0" height="94.6777" rx="7.8125" ry="7.8125" style="stroke:#181818;stroke-width:1.5625;" width="162.5" x="15.625" y="4886.084"/><text fill="#000000" font-family="sans-serif" font-size="43.75" lengthAdjust="spacing" textLength="118.75" x="37.5" y="4948.5687">Telco</text><rect fill="#E2E2F0" height="94.6777" rx="7.8125" ry="7.8125" style="stroke:#181818;stroke-width:1.5625;" width="253.125" x="704.6875" y="15.625"/><text fill="#000000" font-family="sans-serif" font-size="43.75" lengthAdjust="spacing" textLength="209.375" x="726.5625" y="78.1097">Substrate</text><rect fill="#E2E2F0" height="94.6777" rx="7.8125" ry="7.8125" style="stroke:#181818;stroke-width:1.5625;" width="253.125" x="704.6875" y="4886.084"/><text fill="#000000" font-family="sans-serif" font-size="43.75" lengthAdjust="spacing" textLength="209.375" x="726.5625" y="4948.5687">Substrate</text><rect fill="#E2E2F0" height="94.6777" rx="7.8125" ry="7.8125" style="stroke:#181818;stroke-width:1.5625;" width="171.875" x="1426.5625" y="15.625"/><text fill="#000000" font-family="sans-serif" font-size="43.75" lengthAdjust="spacing" textLength="128.125" x="1448.4375" y="78.1097">Agent</text><rect fill="#E2E2F0" height="94.6777" rx="7.8125" ry="7.8125" style="stroke:#181818;stroke-width:1.5625;" width="171.875" x="1426.5625" y="4886.084"/><text fill="#000000" font-family="sans-serif" font-size="43.75" lengthAdjust="spacing" textLength="128.125" x="1448.4375" y="4948.5687">Agent</text><rect fill="#E2E2F0" height="94.6777" rx="7.8125" ry="7.8125" style="stroke:#181818;stroke-width:1.5625;" width="346.875" x="2007.8125" y="15.625"/><text fill="#000000" font-family="sans-serif" font-size="43.75" lengthAdjust="spacing" textLength="303.125" x="2029.6875" y="78.1097">Meas. module</text><rect fill="#E2E2F0" height="94.6777" rx="7.8125" ry="7.8125" style="stroke:#181818;stroke-width:1.5625;" width="346.875" x="2007.8125" y="4886.084"/><text fill="#000000" font-family="sans-serif" font-size="43.75" lengthAdjust="spacing" textLength="303.125" x="2029.6875" y="4948.5687">Meas. module</text><rect fill="#E2E2F0" height="94.6777" rx="7.8125" ry="7.8125" style="stroke:#181818;stroke-width:1.5625;" width="350" x="2385.9375" y="15.625"/><text fill="#000000" font-family="sans-serif" font-size="43.75" lengthAdjust="spacing" textLength="306.25" x="2407.8125" y="78.1097">Meas. storage</text><rect fill="#E2E2F0" height="94.6777" rx="7.8125" ry="7.8125" style="stroke:#181818;stroke-width:1.5625;" width="350" x="2385.9375" y="4886.084"/><text fill="#000000" font-family="sans-serif" font-size="43.75" lengthAdjust="spacing" textLength="306.25" x="2407.8125" y="4948.5687">Meas. storage</text><path d="M1387.5,160.3027 L1387.5,238.4277 L2681.25,238.4277 L2681.25,191.5527 L2650,160.3027 L1387.5,160.3027 " fill="#FEFFDD" style="stroke:#181818;stroke-width:1.5625;"/><path d="M2650,160.3027 L2650,191.5527 L2681.25,191.5527 L2650,160.3027 " fill="#FEFFDD" style="stroke:#181818;stroke-width:1.5625;"/><text fill="#000000" font-family="sans-serif" font-size="40.625" lengthAdjust="spacing" textLength="943.75" x="1548.4375" y="213.6368">These modules are located on cell tower board.</text><rect fill="#EEEEEE" height="9.375" style="stroke:#EEEEEE;stroke-width:3.125;" width="2798.4375" x="0" y="318.7378"/><line style="stroke:#000000;stroke-width:3.125;" x1="0" x2="2798.4375" y1="318.7378" y2="318.7378"/><line style="stroke:#000000;stroke-width:3.125;" x1="0" x2="2798.4375" y1="328.1128" y2="328.1128"/><rect fill="#EEEEEE" height="72.29" style="stroke:#000000;stroke-width:6.25;" width="475" x="1161.7188" y="285.7178"/><text fill="#000000" font-family="sans-serif" font-size="40.625" font-weight="bold" lengthAdjust="spacing" textLength="415.625" x="1180.4688" y="335.9268">Preparation steps</text><line style="stroke:#181818;stroke-width:3.125;" x1="96.875" x2="228.125" y1="502.5879" y2="502.5879"/><line style="stroke:#181818;stroke-width:3.125;" x1="228.125" x2="228.125" y1="502.5879" y2="543.2129"/><line style="stroke:#181818;stroke-width:3.125;" x1="100" x2="228.125" y1="543.2129" y2="543.2129"/><polygon fill="#181818" points="131.25,530.7129,100,543.2129,131.25,555.7129,118.75,543.2129" style="stroke:#181818;stroke-width:3.125;"/><text fill="#000000" font-family="sans-serif" font-size="40.625" font-weight="bold" lengthAdjust="spacing" textLength="28.125" x="118.75" y="463.1119">1</text><text fill="#000000" font-family="sans-serif" font-size="40.625" lengthAdjust="spacing" textLength="603.125" x="159.375" y="439.4669">Admin generates new key pair</text><text fill="#000000" font-family="sans-serif" font-size="40.625" lengthAdjust="spacing" textLength="328.125" x="171.875" y="486.7569">for cell company</text><line style="stroke:#181818;stroke-width:3.125;" x1="96.875" x2="228.125" y1="681.543" y2="681.543"/><line style="stroke:#181818;stroke-width:3.125;" x1="228.125" x2="228.125" y1="681.543" y2="722.168"/><line style="stroke:#181818;stroke-width:3.125;" x1="100" x2="228.125" y1="722.168" y2="722.168"/><polygon fill="#181818" points="131.25,709.668,100,722.168,131.25,734.668,118.75,722.168" style="stroke:#181818;stroke-width:3.125;"/><text fill="#000000" font-family="sans-serif" font-size="40.625" font-weight="bold" lengthAdjust="spacing" textLength="28.125" x="118.75" y="642.067">2</text><text fill="#000000" font-family="sans-serif" font-size="40.625" lengthAdjust="spacing" textLength="603.125" x="159.375" y="618.4219">Admin generates new key pair</text><text fill="#000000" font-family="sans-serif" font-size="40.625" lengthAdjust="spacing" textLength="253.125" x="171.875" y="665.712">for cell tower</text><polygon fill="#181818" points="793.75,800.708,825,813.208,793.75,825.708,806.25,813.208" style="stroke:#181818;stroke-width:3.125;"/><line style="stroke:#181818;stroke-width:3.125;" x1="96.875" x2="812.5" y1="813.208" y2="813.208"/><text fill="#000000" font-family="sans-serif" font-size="40.625" font-weight="bold" lengthAdjust="spacing" textLength="28.125" x="118.75" y="797.377">3</text><text fill="#000000" font-family="sans-serif" font-size="40.625" lengthAdjust="spacing" textLength="350" x="159.375" y="797.377">Create new entity</text><polygon fill="#181818" points="793.75,891.748,825,904.248,793.75,916.748,806.25,904.248" style="stroke:#181818;stroke-width:3.125;"/><line style="stroke:#181818;stroke-width:3.125;" x1="96.875" x2="812.5" y1="904.248" y2="904.248"/><text fill="#000000" font-family="sans-serif" font-size="40.625" font-weight="bold" lengthAdjust="spacing" textLength="28.125" x="118.75" y="888.4171">4</text><text fill="#000000" font-family="sans-serif" font-size="40.625" lengthAdjust="spacing" textLength="437.5" x="159.375" y="888.4171">Create new sub-entity</text><polygon fill="#181818" points="1475,1030.0781,1506.25,1042.5781,1475,1055.0781,1487.5,1042.5781" style="stroke:#181818;stroke-width:3.125;"/><line style="stroke:#181818;stroke-width:3.125;" x1="96.875" x2="1493.75" y1="1042.5781" y2="1042.5781"/><text fill="#000000" font-family="sans-serif" font-size="40.625" font-weight="bold" lengthAdjust="spacing" textLength="28.125" x="118.75" y="1003.1021">5</text><text fill="#000000" font-family="sans-serif" font-size="40.625" lengthAdjust="spacing" textLength="387.5" x="159.375" y="979.4571">Install software with</text><text fill="#000000" font-family="sans-serif" font-size="40.625" lengthAdjust="spacing" textLength="418.75" x="171.875" y="1026.7471">cell tower private key</text><rect fill="#EEEEEE" height="9.375" style="stroke:#EEEEEE;stroke-width:3.125;" width="2798.4375" x="0" y="1131.8481"/><line style="stroke:#000000;stroke-width:3.125;" x1="0" x2="2798.4375" y1="1131.8481" y2="1131.8481"/><line style="stroke:#000000;stroke-width:3.125;" x1="0" x2="2798.4375" y1="1141.2231" y2="1141.2231"/><rect fill="#EEEEEE" height="72.29" style="stroke:#000000;stroke-width:6.25;" width="543.75" x="1127.3438" y="1098.8281"/><text fill="#000000" font-family="sans-serif" font-size="40.625" font-weight="bold" lengthAdjust="spacing" textLength="484.375" x="1146.0938" y="1149.0372">Measurements steps</text><path d="M642.1875,1224.2432 L882.8125,1224.2432 L882.8125,1246.5332 L851.5625,1277.7832 L642.1875,1277.7832 L642.1875,1224.2432 " fill="#EEEEEE" style="stroke:#000000;stroke-width:4.6875;"/><rect fill="none" height="781.8604" style="stroke:#000000;stroke-width:4.6875;" width="2125" x="642.1875" y="1224.2432"/><text fill="#000000" font-family="sans-serif" font-size="40.625" font-weight="bold" lengthAdjust="spacing" textLength="100" x="689.0625" y="1265.0772">loop</text><text fill="#000000" font-family="sans-serif" font-size="34.375" font-weight="bold" lengthAdjust="spacing" textLength="353.125" x="929.6875" y="1262.4008">[In some interval]</text><polygon fill="#181818" points="1546.875,1331.3232,1515.625,1343.8232,1546.875,1356.3232,1534.375,1343.8232" style="stroke:#181818;stroke-width:3.125;"/><line style="stroke:#181818;stroke-width:3.125;" x1="1528.125" x2="2178.125" y1="1343.8232" y2="1343.8232"/><text fill="#000000" font-family="sans-serif" font-size="40.625" font-weight="bold" lengthAdjust="spacing" textLength="28.125" x="1565.625" y="1327.9922">6</text><text fill="#000000" font-family="sans-serif" font-size="40.625" lengthAdjust="spacing" textLength="400" x="1606.25" y="1327.9922">Send measurement</text><path d="M673.4375,1390.6982 L873.4375,1390.6982 L873.4375,1412.9883 L842.1875,1444.2383 L673.4375,1444.2383 L673.4375,1390.6982 " fill="#EEEEEE" style="stroke:#000000;stroke-width:4.6875;"/><rect fill="none" height="502.4902" style="stroke:#000000;stroke-width:4.6875;" width="1332.8125" x="673.4375" y="1390.6982"/><text fill="#000000" font-family="sans-serif" font-size="40.625" font-weight="bold" lengthAdjust="spacing" textLength="59.375" x="720.3125" y="1431.5323">alt</text><text fill="#000000" font-family="sans-serif" font-size="34.375" font-weight="bold" lengthAdjust="spacing" textLength="587.5" x="920.3125" y="1428.8559">[If measurement &gt; threshold]</text><line style="stroke:#181818;stroke-width:3.125;" x1="1512.5" x2="1643.75" y1="1510.2783" y2="1510.2783"/><line style="stroke:#181818;stroke-width:3.125;" x1="1643.75" x2="1643.75" y1="1510.2783" y2="1550.9033"/><line style="stroke:#181818;stroke-width:3.125;" x1="1515.625" x2="1643.75" y1="1550.9033" y2="1550.9033"/><polygon fill="#181818" points="1546.875,1538.4033,1515.625,1550.9033,1546.875,1563.4033,1534.375,1550.9033" style="stroke:#181818;stroke-width:3.125;"/><text fill="#000000" font-family="sans-serif" font-size="40.625" font-weight="bold" lengthAdjust="spacing" textLength="28.125" x="1534.375" y="1494.4473">7</text><text fill="#000000" font-family="sans-serif" font-size="40.625" lengthAdjust="spacing" textLength="393.75" x="1575" y="1494.4473">Prepare transaction</text><line style="stroke:#181818;stroke-width:3.125;" x1="1512.5" x2="1643.75" y1="1641.9434" y2="1641.9434"/><line style="stroke:#181818;stroke-width:3.125;" x1="1643.75" x2="1643.75" y1="1641.9434" y2="1682.5684"/><line style="stroke:#181818;stroke-width:3.125;" x1="1515.625" x2="1643.75" y1="1682.5684" y2="1682.5684"/><polygon fill="#181818" points="1546.875,1670.0684,1515.625,1682.5684,1546.875,1695.0684,1534.375,1682.5684" style="stroke:#181818;stroke-width:3.125;"/><text fill="#000000" font-family="sans-serif" font-size="40.625" font-weight="bold" lengthAdjust="spacing" textLength="28.125" x="1534.375" y="1626.1124">8</text><text fill="#000000" font-family="sans-serif" font-size="40.625" lengthAdjust="spacing" textLength="325" x="1575" y="1626.1124">Sign transaction</text><polygon fill="#181818" points="865.625,1855.6885,834.375,1868.1885,865.625,1880.6885,853.125,1868.1885" style="stroke:#181818;stroke-width:3.125;"/><line style="stroke:#181818;stroke-width:3.125;" x1="846.875" x2="1509.375" y1="1868.1885" y2="1868.1885"/><text fill="#000000" font-family="sans-serif" font-size="40.625" font-weight="bold" lengthAdjust="spacing" textLength="28.125" x="884.375" y="1805.0674">9</text><text fill="#000000" font-family="sans-serif" font-size="40.625" lengthAdjust="spacing" textLength="246.875" x="925" y="1757.7774">Send signed</text><text fill="#000000" font-family="sans-serif" font-size="40.625" lengthAdjust="spacing" textLength="356.25" x="937.5" y="1805.0674">transaction (store</text><text fill="#000000" font-family="sans-serif" font-size="40.625" lengthAdjust="spacing" textLength="415.625" x="937.5" y="1852.3575">measurement spike)</text><polygon fill="#181818" points="2523.4375,1968.6035,2554.6875,1981.1035,2523.4375,1993.6035,2535.9375,1981.1035" style="stroke:#181818;stroke-width:3.125;"/><line style="stroke:#181818;stroke-width:3.125;" x1="1512.5" x2="2542.1875" y1="1981.1035" y2="1981.1035"/><text fill="#000000" font-family="sans-serif" font-size="40.625" font-weight="bold" lengthAdjust="spacing" textLength="56.25" x="1534.375" y="1965.2725">10</text><text fill="#000000" font-family="sans-serif" font-size="40.625" lengthAdjust="spacing" textLength="406.25" x="1603.125" y="1965.2725">Store measurement</text><path d="M673.4375,2049.8535 L914.0625,2049.8535 L914.0625,2072.1436 L882.8125,2103.3936 L673.4375,2103.3936 L673.4375,2049.8535 " fill="#EEEEEE" style="stroke:#000000;stroke-width:4.6875;"/><rect fill="none" height="768.9453" style="stroke:#000000;stroke-width:4.6875;" width="2093.75" x="673.4375" y="2049.8535"/><text fill="#000000" font-family="sans-serif" font-size="40.625" font-weight="bold" lengthAdjust="spacing" textLength="100" x="720.3125" y="2090.6876">loop</text><text fill="#000000" font-family="sans-serif" font-size="34.375" font-weight="bold" lengthAdjust="spacing" textLength="225" x="960.9375" y="2088.0112">[Every day]</text><polygon fill="#181818" points="2523.4375,2156.9336,2554.6875,2169.4336,2523.4375,2181.9336,2535.9375,2169.4336" style="stroke:#181818;stroke-width:3.125;"/><line style="stroke:#181818;stroke-width:3.125;" x1="1512.5" x2="2542.1875" y1="2169.4336" y2="2169.4336"/><text fill="#000000" font-family="sans-serif" font-size="40.625" font-weight="bold" lengthAdjust="spacing" textLength="56.25" x="1534.375" y="2153.6026">11</text><text fill="#000000" font-family="sans-serif" font-size="40.625" lengthAdjust="spacing" textLength="703.125" x="1603.125" y="2153.6026">Get measurements for the last day</text><polygon fill="#181818" points="1546.875,2247.9736,1515.625,2260.4736,1546.875,2272.9736,1534.375,2260.4736" style="stroke:#181818;stroke-width:3.125;"/><line style="stroke:#181818;stroke-width:3.125;stroke-dasharray:2.0,2.0;" x1="1528.125" x2="2557.8125" y1="2260.4736" y2="2260.4736"/><text fill="#000000" font-family="sans-serif" font-size="40.625" font-weight="bold" lengthAdjust="spacing" textLength="56.25" x="1565.625" y="2244.6426">12</text><text fill="#000000" font-family="sans-serif" font-size="40.625" lengthAdjust="spacing" textLength="450" x="1634.375" y="2244.6426">Return measurements</text><line style="stroke:#181818;stroke-width:3.125;" x1="1512.5" x2="1643.75" y1="2351.5137" y2="2351.5137"/><line style="stroke:#181818;stroke-width:3.125;" x1="1643.75" x2="1643.75" y1="2351.5137" y2="2392.1387"/><line style="stroke:#181818;stroke-width:3.125;" x1="1515.625" x2="1643.75" y1="2392.1387" y2="2392.1387"/><polygon fill="#181818" points="1546.875,2379.6387,1515.625,2392.1387,1546.875,2404.6387,1534.375,2392.1387" style="stroke:#181818;stroke-width:3.125;"/><text fill="#000000" font-family="sans-serif" font-size="40.625" font-weight="bold" lengthAdjust="spacing" textLength="56.25" x="1534.375" y="2335.6827">13</text><text fill="#000000" font-family="sans-serif" font-size="40.625" lengthAdjust="spacing" textLength="556.25" x="1603.125" y="2335.6827">Accumulate measurements</text><line style="stroke:#181818;stroke-width:3.125;" x1="1512.5" x2="1643.75" y1="2483.1787" y2="2483.1787"/><line style="stroke:#181818;stroke-width:3.125;" x1="1643.75" x2="1643.75" y1="2483.1787" y2="2523.8037"/><line style="stroke:#181818;stroke-width:3.125;" x1="1515.625" x2="1643.75" y1="2523.8037" y2="2523.8037"/><polygon fill="#181818" points="1546.875,2511.3037,1515.625,2523.8037,1546.875,2536.3037,1534.375,2523.8037" style="stroke:#181818;stroke-width:3.125;"/><text fill="#000000" font-family="sans-serif" font-size="40.625" font-weight="bold" lengthAdjust="spacing" textLength="56.25" x="1534.375" y="2467.3477">14</text><text fill="#000000" font-family="sans-serif" font-size="40.625" lengthAdjust="spacing" textLength="393.75" x="1603.125" y="2467.3477">Prepare transaction</text><line style="stroke:#181818;stroke-width:3.125;" x1="1512.5" x2="1643.75" y1="2614.8438" y2="2614.8438"/><line style="stroke:#181818;stroke-width:3.125;" x1="1643.75" x2="1643.75" y1="2614.8438" y2="2655.4688"/><line style="stroke:#181818;stroke-width:3.125;" x1="1515.625" x2="1643.75" y1="2655.4688" y2="2655.4688"/><polygon fill="#181818" points="1546.875,2642.9688,1515.625,2655.4688,1546.875,2667.9688,1534.375,2655.4688" style="stroke:#181818;stroke-width:3.125;"/><text fill="#000000" font-family="sans-serif" font-size="40.625" font-weight="bold" lengthAdjust="spacing" textLength="56.25" x="1534.375" y="2599.0128">15</text><text fill="#000000" font-family="sans-serif" font-size="40.625" lengthAdjust="spacing" textLength="325" x="1603.125" y="2599.0128">Sign transaction</text><polygon fill="#181818" points="865.625,2781.2988,834.375,2793.7988,865.625,2806.2988,853.125,2793.7988" style="stroke:#181818;stroke-width:3.125;"/><line style="stroke:#181818;stroke-width:3.125;" x1="846.875" x2="1509.375" y1="2793.7988" y2="2793.7988"/><text fill="#000000" font-family="sans-serif" font-size="40.625" font-weight="bold" lengthAdjust="spacing" textLength="56.25" x="884.375" y="2754.3228">16</text><text fill="#000000" font-family="sans-serif" font-size="40.625" lengthAdjust="spacing" textLength="340.625" x="953.125" y="2730.6778">Send transaction</text><text fill="#000000" font-family="sans-serif" font-size="40.625" lengthAdjust="spacing" textLength="431.25" x="965.625" y="2777.9678">(store measurement)</text><rect fill="#EEEEEE" height="9.375" style="stroke:#EEEEEE;stroke-width:3.125;" width="2798.4375" x="0" y="2904.9438"/><line style="stroke:#000000;stroke-width:3.125;" x1="0" x2="2798.4375" y1="2904.9438" y2="2904.9438"/><line style="stroke:#000000;stroke-width:3.125;" x1="0" x2="2798.4375" y1="2914.3188" y2="2914.3188"/><rect fill="#EEEEEE" height="72.29" style="stroke:#000000;stroke-width:6.25;" width="484.375" x="1157.0313" y="2871.9238"/><text fill="#000000" font-family="sans-serif" font-size="40.625" font-weight="bold" lengthAdjust="spacing" textLength="425" x="1175.7813" y="2922.1329">Certification steps</text><polygon fill="#181818" points="1546.875,3029.0039,1515.625,3041.5039,1546.875,3054.0039,1534.375,3041.5039" style="stroke:#181818;stroke-width:3.125;"/><line style="stroke:#181818;stroke-width:3.125;" x1="1528.125" x2="2178.125" y1="3041.5039" y2="3041.5039"/><text fill="#000000" font-family="sans-serif" font-size="40.625" font-weight="bold" lengthAdjust="spacing" textLength="56.25" x="1565.625" y="3025.6729">17</text><text fill="#000000" font-family="sans-serif" font-size="40.625" lengthAdjust="spacing" textLength="481.25" x="1634.375" y="3025.6729">Produce measurements</text><polygon fill="#181818" points="865.625,3120.0439,834.375,3132.5439,865.625,3145.0439,853.125,3132.5439" style="stroke:#181818;stroke-width:3.125;"/><line style="stroke:#181818;stroke-width:3.125;" x1="846.875" x2="1509.375" y1="3132.5439" y2="3132.5439"/><text fill="#000000" font-family="sans-serif" font-size="40.625" font-weight="bold" lengthAdjust="spacing" textLength="56.25" x="884.375" y="3116.713">18</text><text fill="#000000" font-family="sans-serif" font-size="40.625" lengthAdjust="spacing" textLength="428.125" x="953.125" y="3116.713">Store measurements</text><text fill="#000000" font-family="sans-serif" font-size="34.375" lengthAdjust="spacing" textLength="234.375" x="1211.7188" y="3233.2016">In some time</text><path d="M673.4375,3306.9336 L873.4375,3306.9336 L873.4375,3329.2236 L842.1875,3360.4736 L673.4375,3360.4736 L673.4375,3306.9336 " fill="#EEEEEE" style="stroke:#000000;stroke-width:4.6875;"/><rect fill="none" height="716.6504" style="stroke:#000000;stroke-width:4.6875;" width="1178.125" x="673.4375" y="3306.9336"/><text fill="#000000" font-family="sans-serif" font-size="40.625" font-weight="bold" lengthAdjust="spacing" textLength="59.375" x="720.3125" y="3347.7676">alt</text><text fill="#000000" font-family="sans-serif" font-size="34.375" font-weight="bold" lengthAdjust="spacing" textLength="915.625" x="920.3125" y="3345.0912">[Received required amount of measurements]</text><path d="M731.25,3376.0986 L731.25,3641.7236 L1609.375,3641.7236 L1609.375,3407.3486 L1578.125,3376.0986 L731.25,3376.0986 " fill="#FEFFDD" style="stroke:#181818;stroke-width:1.5625;"/><path d="M1578.125,3376.0986 L1578.125,3407.3486 L1609.375,3407.3486 L1578.125,3376.0986 " fill="#FEFFDD" style="stroke:#181818;stroke-width:1.5625;"/><text fill="#000000" font-family="sans-serif" font-size="40.625" lengthAdjust="spacing" textLength="396.875" x="875" y="3429.4327">It means we receive</text><text fill="#000000" font-family="sans-serif" font-size="40.625" lengthAdjust="spacing" textLength="481.25" x="875" y="3476.7227">average measurements</text><text fill="#000000" font-family="sans-serif" font-size="40.625" lengthAdjust="spacing" textLength="412.5" x="875" y="3524.0128">for the whole month.</text><text fill="#000000" font-family="sans-serif" font-size="40.625" lengthAdjust="spacing" textLength="425" x="875" y="3571.3028">And it is enough data</text><text fill="#000000" font-family="sans-serif" font-size="40.625" lengthAdjust="spacing" textLength="562.5" x="875" y="3618.5928">to issue on-chain certificate.</text><line style="stroke:#181818;stroke-width:3.125;" x1="831.25" x2="962.5" y1="3820.0439" y2="3820.0439"/><line style="stroke:#181818;stroke-width:3.125;" x1="962.5" x2="962.5" y1="3820.0439" y2="3860.6689"/><line style="stroke:#181818;stroke-width:3.125;" x1="834.375" x2="962.5" y1="3860.6689" y2="3860.6689"/><polygon fill="#181818" points="865.625,3848.1689,834.375,3860.6689,865.625,3873.1689,853.125,3860.6689" style="stroke:#181818;stroke-width:3.125;"/><text fill="#000000" font-family="sans-serif" font-size="40.625" font-weight="bold" lengthAdjust="spacing" textLength="56.25" x="853.125" y="3756.9229">19</text><text fill="#000000" font-family="sans-serif" font-size="40.625" lengthAdjust="spacing" textLength="440.625" x="921.875" y="3709.6329">Spawn on-chain event</text><text fill="#000000" font-family="sans-serif" font-size="40.625" lengthAdjust="spacing" textLength="331.25" x="934.375" y="3756.9229">about new ready</text><text fill="#000000" font-family="sans-serif" font-size="40.625" lengthAdjust="spacing" textLength="365.625" x="934.375" y="3804.213">to issue certificate</text><line style="stroke:#000000;stroke-width:3.125;stroke-dasharray:2.0,2.0;" x1="673.4375" x2="1851.5625" y1="3888.7939" y2="3888.7939"/><line style="stroke:#181818;stroke-width:3.125;" x1="831.25" x2="962.5" y1="3957.959" y2="3957.959"/><line style="stroke:#181818;stroke-width:3.125;" x1="962.5" x2="962.5" y1="3957.959" y2="3998.584"/><line style="stroke:#181818;stroke-width:3.125;" x1="871.875" x2="962.5" y1="3998.584" y2="3998.584"/><line style="stroke:#181818;stroke-width:6.25;" x1="850" x2="881.25" y1="3982.959" y2="4014.209"/><line style="stroke:#181818;stroke-width:6.25;" x1="850" x2="881.25" y1="4014.209" y2="3982.959"/><text fill="#000000" font-family="sans-serif" font-size="40.625" font-weight="bold" lengthAdjust="spacing" textLength="56.25" x="853.125" y="3942.128">20</text><text fill="#000000" font-family="sans-serif" font-size="40.625" lengthAdjust="spacing" textLength="337.5" x="921.875" y="3942.128">Stop current flow</text><text fill="#000000" font-family="sans-serif" font-size="34.375" lengthAdjust="spacing" textLength="234.375" x="1211.7188" y="4121.1166">In some time</text><polygon fill="#181818" points="131.25,4321.0938,100,4333.5938,131.25,4346.0938,118.75,4333.5938" style="stroke:#181818;stroke-width:3.125;"/><line style="stroke:#181818;stroke-width:3.125;" x1="112.5" x2="828.125" y1="4333.5938" y2="4333.5938"/><text fill="#000000" font-family="sans-serif" font-size="40.625" font-weight="bold" lengthAdjust="spacing" textLength="56.25" x="150" y="4270.4727">21</text><text fill="#000000" font-family="sans-serif" font-size="40.625" lengthAdjust="spacing" textLength="293.75" x="218.75" y="4223.1827">See new ready</text><text fill="#000000" font-family="sans-serif" font-size="40.625" lengthAdjust="spacing" textLength="381.25" x="231.25" y="4270.4727">on-chain certificate</text><text fill="#000000" font-family="sans-serif" font-size="40.625" lengthAdjust="spacing" textLength="206.25" x="231.25" y="4317.7628">(an event)</text><polygon fill="#181818" points="793.75,4412.1338,825,4424.6338,793.75,4437.1338,806.25,4424.6338" style="stroke:#181818;stroke-width:3.125;"/><line style="stroke:#181818;stroke-width:3.125;" x1="96.875" x2="812.5" y1="4424.6338" y2="4424.6338"/><text fill="#000000" font-family="sans-serif" font-size="40.625" font-weight="bold" lengthAdjust="spacing" textLength="56.25" x="118.75" y="4408.8028">22</text><text fill="#000000" font-family="sans-serif" font-size="40.625" lengthAdjust="spacing" textLength="590.625" x="187.5" y="4408.8028">Get on-chain ready certificate</text><polygon fill="#181818" points="131.25,4550.4639,100,4562.9639,131.25,4575.4639,118.75,4562.9639" style="stroke:#181818;stroke-width:3.125;"/><line style="stroke:#181818;stroke-width:3.125;stroke-dasharray:2.0,2.0;" x1="112.5" x2="828.125" y1="4562.9639" y2="4562.9639"/><text fill="#000000" font-family="sans-serif" font-size="40.625" font-weight="bold" lengthAdjust="spacing" textLength="56.25" x="150" y="4523.4879">23</text><text fill="#000000" font-family="sans-serif" font-size="40.625" lengthAdjust="spacing" textLength="315.625" x="218.75" y="4499.8428">Return on-chain</text><text fill="#000000" font-family="sans-serif" font-size="40.625" lengthAdjust="spacing" textLength="406.25" x="231.25" y="4547.1329">ready certificate info</text><polygon fill="#181818" points="793.75,4641.5039,825,4654.0039,793.75,4666.5039,806.25,4654.0039" style="stroke:#181818;stroke-width:3.125;"/><line style="stroke:#181818;stroke-width:3.125;" x1="96.875" x2="812.5" y1="4654.0039" y2="4654.0039"/><text fill="#000000" font-family="sans-serif" font-size="40.625" font-weight="bold" lengthAdjust="spacing" textLength="56.25" x="118.75" y="4638.1729">24</text><text fill="#000000" font-family="sans-serif" font-size="40.625" lengthAdjust="spacing" textLength="403.125" x="187.5" y="4638.1729">Issue new certificate</text><line style="stroke:#181818;stroke-width:3.125;" x1="831.25" x2="962.5" y1="4792.334" y2="4792.334"/><line style="stroke:#181818;stroke-width:3.125;" x1="962.5" x2="962.5" y1="4792.334" y2="4832.959"/><line style="stroke:#181818;stroke-width:3.125;" x1="834.375" x2="962.5" y1="4832.959" y2="4832.959"/><polygon fill="#181818" points="865.625,4820.459,834.375,4832.959,865.625,4845.459,853.125,4832.959" style="stroke:#181818;stroke-width:3.125;"/><text fill="#000000" font-family="sans-serif" font-size="40.625" font-weight="bold" lengthAdjust="spacing" textLength="56.25" x="853.125" y="4752.858">25</text><text fill="#000000" font-family="sans-serif" font-size="40.625" lengthAdjust="spacing" textLength="493.75" x="921.875" y="4729.213">Procudes on-chain event</text><text fill="#000000" font-family="sans-serif" font-size="40.625" lengthAdjust="spacing" textLength="556.25" x="934.375" y="4776.503">about new issued certificate</text><!--SRC=[dLLDYnin3BtxLuWzTM4pBFGMI24ifUHGM3Px31J7e-oOdR6d_iWq_xxIV2HsEkcMNWP7VdgIdcJ5lslJIYSRA5iDdnyVXOp1cjZiqGb1Dq4htKeJu1LhPK5w27p8hhPnxuEJ0VdQJpyooFeDwKlNaW_PrTrtbBw0nfQnnZl6D6JuCVoUG_fW7T7qqF4iXB4KtXxH3H4Uneibl5ReSMIdy0wXjehIAy4QK5ZN46n7RdihNLa8iLh1iqFM96X2-82jXzLAYBvkM7mP15Z2kcoq0Gg6NAq7WnsyumbQgTtEmC6wWLxPXh8__RT_dzx5-wpl4fuSikZiI2NhSFe8HTR5DRANQmaRuuEaQDuUGiSgTJfKkqoXrkaZCr6IlKpSZUYm8N-Vw5HRsn8TCJK8sWHqHraBIBkQnDsYAVkhaOc0iWwmEQH68D4gXxwoTKa069mJbg5Z25IoyL9nvsPnM_rcReCIqVgqFA6nt6KUy8ad2ycOvkTR_Oxtn4Pk8cMSfd3BJbcTZ1oq-afJUu9IdcOzls58_Nm_6A6YCPO-Z5uZ61QNIbymH9SbwSMVUgoLYasikQiV8ESL_WTzRwgRm7QJh6aMzuD4D6XFI3lWeDNrYvoVg6T75dLLq6mMrn6z44LHd6StQFgGGGYUo1TKg8-qDXp-ZDhHGJOs4gazv1oNJNIEzJ1ilKtVIUEXGsBfwOGa8BSkevXQtD70y-uoeIh4cZJJ0RId8RFnhQBU1oc29OkF5D4iL2KrlzX9BInOGk24n3cNQn5QsPcBCnuf0Mg7tDiO-fr1swCyyHkO0YNy0ckFF7y9-QyhYLjGqJbM_r3RRkZflCfPYkEIt29cMSnLoTCZnzJlPrSWlw6pPq-LLP44laGU7z3ajfjnfErsiBC1DxrIdFYDE1cQ9bR5alu2_jA6Nlioe_iD]--></g></svg>